v -1.250280619 1.174074769 32.39004898
vn -0.8216738105 0.4443077445 0.356991291
v 1.249715567 1.174074769 32.39004898
vn -2.400525959e-19 0.534447372 0.8452017903
v 3.749718904 1.249818921 19.99996948
vn 0.6815375686 0.7317761779 0.003187112743
v 3.749718904 -1.250176668 29.99995232
vn 1 0 0
v -1.250280619 1.249818921 19.99996948
vn -0.7062528133 0.7079578042 0.001655311673
v -1.250280619 -3.750168324 19.99996948
vn -0.7383604646 -0.6743940711 0.004050600342
v 3.749718904 -1.250177264 19.99996948
vn 1 0 0
v 3.749718904 1.174074769 32.39004898
vn 0.6997769475 0.2204707265 0.6794887185
v 1.249715567 -3.750169277 2.496028185
vn -3.119847061e-24 -1 4.655559493e-08
v 3.749719143 -3.750169277 2.496028185
vn 0.7071050406 -0.7071084976 2.194656012e-08
v 3.749719143 -1.250177979 2.496028185
vn 1 0 0
v 3.749719143 1.249818206 2.496028185
vn 0.7071057558 0.707107842 -3.291981088e-08
v 1.249715567 1.249818206 2.496028185
vn 0 1 -4.655557362e-08
v -1.250280619 1.249818206 2.496028185
vn -0.7071067691 0.7071067691 -3.291976114e-08
v -1.250280619 -1.250177979 2.496028185
vn -1 0 0
v -1.250280619 -3.750169277 2.496028185
vn -0.7071061134 -0.7071074843 4.38930563e-08
v 1.249715567 -3.750169039 4.996591091
vn -6.23968939e-24 -1 9.311114013e-08
v 3.749719143 -3.750169039 4.996591091
vn 0.7071050406 -0.7071084976 6.58396786e-08
v 3.749719143 -1.25017786 4.996591091
vn 1 0 0
v 3.749719143 1.249818325 4.996591091
vn 0.7071056962 0.707107842 -3.291980732e-08
v 1.249715567 1.249818325 4.996591091
vn 0 1 -4.655557007e-08
v -1.250280619 1.249818325 4.996591091
vn -0.7071067691 0.7071067691 -3.291976114e-08
v -1.250280619 -1.25017786 4.996591091
vn -1 0 0
v -1.250280619 -3.750169039 4.996591091
vn -0.7071060538 -0.7071074843 6.583958623e-08
v 1.249715567 -3.7501688 7.497154236
vn 0 -1 4.655554875e-08
v 3.749719143 -3.7501688 7.497154236
vn 0.7071049809 -0.7071085572 8.778602734e-08
v 3.749719143 -1.250177741 7.497154236
vn 1 -2.691422324e-25 4.655558783e-08
v 3.749719143 1.249818444 7.497154236
vn 0.7071057558 0.7071077824 -1.097333424e-08
v 1.249715567 1.249818444 7.497154236
vn 1.559921066e-24 1 -4.655557362e-08
v -1.250280619 1.249818444 7.497154236
vn -0.7071067691 0.7071068287 -3.291976114e-08
v -1.250280619 -1.250177741 7.497154236
vn -1 0 0
v -1.250280619 -3.7501688 7.497154236
vn -0.7071061134 -0.7071074843 2.194652993e-08
v 1.249715567 -3.7501688 9.997716904
vn 0 -1 6.123234263e-17
v 3.749718904 -3.7501688 9.997716904
vn 0.7071050406 -0.7071084976 2.194645532e-08
v 3.749718904 -1.250177622 9.997716904
vn 1 -2.691443772e-25 4.655555941e-08
v 3.749718904 1.249818563 9.997716904
vn 0.7071057558 0.7071077824 1.097314328e-08
v 1.249715567 1.249818563 9.997716904
vn 1.559918995e-24 1 -4.655557717e-08
v -1.250280619 1.249818563 9.997716904
vn -0.7071067691 0.7071067691 -3.291976469e-08
v -1.250280619 -1.250177622 9.997716904
vn -1 0 0
v -1.250280619 -3.7501688 9.997716904
vn -0.7071060538 -0.7071074843 4.329784603e-17
v 1.249715567 -3.7501688 12.49828053
vn -3.119848047e-24 -1 4.655559138e-08
v 3.749718904 -3.7501688 12.49828053
vn 0.7071051002 -0.707108438 2.194655835e-08
v 3.749718904 -1.250177622 12.49828053
vn 1 0 0
v 3.749718904 1.249818563 12.49828053
vn 0.7071057558 0.707107842 -3.291980377e-08
v 1.249715567 1.249818563 12.49828053
vn -8.715421686e-31 1 -4.655556651e-08
v -1.250280619 1.249818563 12.49828053
vn -0.7071068287 0.7071067095 -3.291975759e-08
v -1.250280619 -1.250177622 12.49828053
vn -1 0 0
v -1.250280619 -3.7501688 12.49828053
vn -0.7071060538 -0.7071075439 4.389305275e-08
v 1.249715567 -3.750168562 14.99884415
vn -6.23969294e-24 -1 9.311115434e-08
v 3.749718904 -3.750168562 14.99884415
vn 0.7071049809 -0.7071086168 6.58396857e-08
v 3.749718904 -1.250177503 14.99884415
vn 1 0 0
v 3.749718904 1.249818683 14.99884415
vn 0.707105875 0.7071077228 -3.291981088e-08
v 1.249715567 1.249818683 14.99884415
vn -3.11984647e-24 1 -4.655557717e-08
v -1.250280619 1.249818683 14.99884415
vn -0.7071067095 0.7071068883 -3.291976469e-08
v -1.250280619 -1.250177503 14.99884415
vn -1 0 0
v -1.250280619 -3.750168562 14.99884415
vn -0.707106173 -0.7071074247 6.583959333e-08
v 1.249715567 -3.750168324 17.49940491
vn 0 -1 4.655555585e-08
v 3.749718904 -3.750168324 17.49940491
vn 0.7071051002 -0.707108438 4.389312735e-08
v 3.749718904 -1.250177383 17.49940491
vn 1 0 0
v 3.749718904 1.249818802 17.49940491
vn 0.7071056962 0.7071079016 -3.291981088e-08
v 1.249715567 1.249818802 17.49940491
vn -3.119844695e-24 1 -4.655557717e-08
v -1.250280619 1.249818802 17.49940491
vn -0.7071068883 0.7071067095 -3.291976469e-08
v -1.250280619 -1.250177383 17.49940491
vn -1 0 0
v -1.250280619 -3.750168324 17.49940491
vn -0.7071059346 -0.7071076035 2.19465317e-08
v 1.249715567 -8.864730835 27.56323814
vn -1.358622132e-18 -0.03214957938 -0.9994830489
v 3.749718904 -3.674423218 27.60985756
vn 0.8687012196 -0.410323292 -0.2774760425
v 1.249715567 -3.674423218 27.60985756
vn 2.167760824e-19 -0.5893086195 -0.8079079986
v -1.250280619 -3.674423218 27.60985756
vn -0.7745626569 -0.2136434019 -0.5953227878
v -1.250280619 -1.250176668 29.99995232
vn -1 0 0
v -1.250280619 -8.829393387 32.54445648
vn -0.6780601144 0.002266256837 0.7350029349
v 1.249715567 -10.55340958 27.72434235
vn -1.435334552e-18 0.8612775803 -0.5081347227
v -1.250280619 -8.864730835 27.56323814
vn -0.800590694 -0.0299504362 -0.5984626412
v -1.250280619 -1.250177145 22.49996567
vn -1 0 0
v -1.250280619 -3.731232166 21.90244102
vn -0.739330411 -0.6733094454 0.006701807491
v 1.249715567 -3.731232166 21.90244102
vn -2.430639207e-25 -0.9999504685 0.00995304063
v 3.749718904 -3.731232166 21.90244102
vn 0.7372937799 -0.6755387783 0.006723999046
v 3.749718904 -1.250177145 22.49996567
vn 1 0 0
v 3.749718904 1.230882883 23.09749031
vn 0.6816413999 0.7316727638 0.00447294116
v 1.249715567 1.230882883 23.09749031
vn -4.60346587e-19 0.9999813437 0.006113193464
v -1.250280619 1.230882883 23.09749031
vn -0.6800410151 0.7331603765 0.004482034128
v -1.250280619 -1.250176907 24.99996185
vn -1 0 0
v -1.250280619 -3.712295771 23.80491447
vn -0.736269176 -0.6766552329 0.006735107396
v 1.249715567 -3.712295771 23.80491447
vn -5.449839658e-19 -0.9999504685 0.009953035973
v 3.749718904 -3.712295771 23.80491447
vn 0.7342019677 -0.6788975 0.00675742561
v 3.749718904 -1.250176907 24.99996185
vn 1 0 0
v 3.749718904 1.211946845 26.19500732
vn 0.6792356372 0.7339065075 0.004486577585
v 1.249715567 1.211946845 26.19500732
vn -4.603463802e-19 0.9999813437 0.006113174371
v -1.250280619 1.211946845 26.19500732
vn -0.6776207089 0.7353978157 0.004495704081
v -1.250280619 -1.250176787 27.49995613
vn -1 0 0
v -1.250280619 -3.693359375 25.70738602
vn -0.7331622243 -0.6800200939 0.006768604275
v 1.249715567 -3.693359375 25.70738602
vn -1.816614382e-19 -0.9999504685 0.00995304063
v 3.749718904 -3.693359375 25.70738602
vn 0.7310639024 -0.6822752357 0.006791048218
v 3.749718904 -1.250176787 27.49995613
vn 1 0 0
v 3.749718904 1.193010807 29.29252815
vn 0.67680794 0.7361459136 0.004500275478
v 1.249715567 1.193010807 29.29252815
vn 0 0.9999813437 0.006113172509
v -1.250280619 1.193010807 29.29252815
vn -0.6751781106 0.7376409769 0.004509406164
v -1.250280738 -15.20317173 32.44054031
vn -0.7156832814 -0.2439082116 0.6544510722
v 1.249715567 -8.829393387 32.54445648
vn -3.1871269e-19 -0.002348037902 0.9999972582
v 3.749718904 -8.829393387 32.54445648
vn 0.6468062997 -0.005612654611 0.7626336813
v 3.749718904 -8.847064018 30.05384636
vn 1 0 0
v 3.749718904 -8.864730835 27.56323814
vn 0.7599734068 -0.01081554499 -0.6498641968
v -1.250280738 -10.55340958 27.72434235
vn -0.8046321273 0.5710132718 -0.1628219187
v 1.249715567 -15.20317173 32.44054031
vn -3.116518556e-18 -0.5872573853 0.8094002604
v -1.250280738 -12.87829018 30.08243942
vn -1 1.408405481e-08 9.052357974e-09
v 3.749718904 -6.269577026 27.58654785
vn 0.7499931455 0.005941037089 -0.6614189148
v 3.749718904 -5.048620224 30.02689934
vn 1 0 0
v 3.749718904 -3.827659369 32.46725082
vn 0.6687315702 0.01147513837 0.7434153557
v 1.249715567 -3.827659369 32.46725082
vn -3.266679665e-25 0.01543373987 0.9998809099
v -1.250280619 -3.827659369 32.46725082
vn -0.6721830964 0.01142681669 0.7402967811
v -1.250280619 -5.048620224 30.02689934
vn -1 0 0
v -1.250280619 -6.269577026 27.58654785
vn -0.7452242374 0.005989095196 -0.6667870283
v 1.249715567 -6.269577026 27.58654785
vn -2.083705962e-19 0.008981778286 -0.9999596477
v 3.749718904 -10.52318287 18.70545197
vn 0.5358344316 0.7660360336 -0.3550637066
v 3.749718904 -15.20317173 32.44054031
vn 0.7874671221 -0.5040391088 0.354739517
v 3.749718904 -12.87829018 30.08243942
vn 1 0 0
v 3.749718904 -10.55340958 27.72434235
vn 0.8760616183 0.3005622327 -0.3770655096
v 1.249715567 -15.39455891 18.74000549
vn 7.078222242e-19 -0.9802069068 -0.19797571
v -1.250280738 -15.39455891 18.74000549
vn -0.5223977566 -0.8065142035 -0.2768309414
v 3.749718904 -15.39455891 18.74000549
vn 0.7716724277 -0.5639764071 -0.2940277159
v 3.749718904 -12.95886898 18.72272873
vn 0.9691094756 -0.001749370946 -0.2466247976
v 1.249715567 -10.52318287 18.70545197
vn -1.087320256e-19 0.9651775956 -0.2615953982
v -1.250280738 -10.52318287 18.70545197
vn -0.7749667168 0.5299212337 -0.3443981111
v -1.250280738 -12.95886898 18.72272873
vn -0.9733159542 -0.001627640449 -0.2294633538
v -1.250280738 -12.90514946 26.29586792
vn -1 0 0
v -1.250280738 -10.54333401 24.71804428
vn -0.7146387696 0.6994897723 0.002344278852
v 1.249715567 -10.54333401 24.71804428
vn -1.130454364e-19 0.9999943972 0.003351445543
v 3.749718904 -10.54333401 24.71804428
vn 0.7182191014 0.6958131194 0.0023320287
v 3.749718904 -12.90514946 26.29586792
vn 1 0 0
v 3.749718904 -15.26696682 27.87369537
vn 0.6666876078 -0.7452645302 0.01041090395
v 1.249715567 -15.26696682 27.87369537
vn 6.021501077e-19 -0.9999024272 0.01396801043
v -1.250280738 -15.26696682 27.87369537
vn -0.6695483327 -0.7426959872 0.0103749726
v -1.250280738 -12.9320097 22.50929642
vn -1 0 0
v -1.250280738 -10.53325844 21.71174812
vn -0.7199896574 0.6939808726 0.002325888956
v 1.249715567 -10.53325844 21.71174812
vn 0 0.9999943972 0.003351446474
v 3.749718904 -10.53325844 21.71174812
vn 0.7234858871 0.6903352737 0.002313598758
v 3.749718904 -12.9320097 22.50929642
vn 1 0 0
v 3.749718904 -15.33076286 23.30685043
vn 0.6709660888 -0.7414156795 0.01035708748
v 1.249715567 -15.33076286 23.30685043
vn 6.021501077e-19 -0.9999024272 0.01396801043
v -1.250280738 -15.33076286 23.30685043
vn -0.6737826467 -0.7388575077 0.01032140199
v 1.249718904 -12.99120235 14.16469669
vn 6.954988853e-17 -0.007093069609 -0.9999748468
v 1.962068915 -1.962525606 -0.004534992855
vn 0 -6.123234263e-17 -1
v 0.5334895849 -0.5339497924 -0.004534992855
vn 0 -6.123234263e-17 -1
v 0.2481088042 -2.24856472 -0.004534992855
vn 0 -6.123234263e-17 -1
v 2.248108625 -0.2485696971 -0.004534992855
vn 0 -6.123234263e-17 -1
v -1.250280619 -8.847064018 30.05384636
vn -1 1.55598503e-08 4.853986546e-09
v 3.749718904 -3.750168324 19.99996948
vn 0.7061027288 -0.7081067562 0.001942311064
v 1.249715567 1.249818921 19.99996948
vn -2.787142214e-24 0.999994278 0.003382559866
v -1.250280619 -1.250178099 -0.004534992855
vn -0.8613798022 -3.110366855e-17 -0.507961452
v 1.249715567 -3.750169277 -0.004534992855
vn 0 -0.8609011173 -0.5087723732
v 1.249715567 -3.750168324 19.99996948
vn 1.569914744e-19 -0.9999907613 0.004300705157
v -1.250280619 1.249818087 -0.004534992855
vn -0.7540217638 0.3770108819 -0.537879169
v 1.249715567 1.249818087 -0.004534992855
vn 0 0.8613800406 -0.5079610944
v 3.749719143 -1.250178099 -0.004534992855
vn 0.8609002233 -3.115341189e-17 -0.5087738037
v -1.250280619 -1.250177264 19.99996948
vn -1 0 0
v 3.749719143 1.249818087 -0.004534992855
vn 0.3940742314 0.7881507874 -0.4727830589
v -1.250280619 -3.750169277 -0.004534992855
vn -0.3940746486 -0.788150847 -0.4727826416
v 3.749719143 -3.750169277 -0.004534992855
vn 0.7535463572 -0.3767750561 -0.5387099385
# mm_gid 21
g mmGroup21
f 156//156 9//9 16//16 
f 156//156 149//149 9//9 
f 148//148 16//16 15//15 
f 148//148 156//156 16//16 
f 151//151 15//15 14//14 
f 151//151 148//148 15//15 
f 152//152 14//14 13//13 
f 152//152 151//151 14//14 
f 155//155 13//13 12//12 
f 155//155 152//152 13//13 
f 153//153 12//12 11//11 
f 153//153 155//155 12//12 
f 157//157 11//11 10//10 
f 157//157 153//153 11//11 
f 149//149 10//10 9//9 
f 149//149 157//157 10//10 
f 9//9 10//10 18//18 
f 9//9 18//18 17//17 
f 10//10 11//11 19//19 
f 10//10 19//19 18//18 
f 11//11 12//12 20//20 
f 11//11 20//20 19//19 
f 12//12 13//13 21//21 
f 12//12 21//21 20//20 
f 13//13 14//14 22//22 
f 13//13 22//22 21//21 
f 14//14 15//15 23//23 
f 14//14 23//23 22//22 
f 15//15 16//16 24//24 
f 15//15 24//24 23//23 
f 16//16 9//9 17//17 
f 16//16 17//17 24//24 
f 17//17 18//18 26//26 
f 17//17 26//26 25//25 
f 18//18 19//19 27//27 
f 18//18 27//27 26//26 
f 19//19 20//20 28//28 
f 19//19 28//28 27//27 
f 20//20 21//21 29//29 
f 20//20 29//29 28//28 
f 21//21 22//22 30//30 
f 21//21 30//30 29//29 
f 22//22 23//23 31//31 
f 22//22 31//31 30//30 
f 23//23 24//24 32//32 
f 23//23 32//32 31//31 
f 24//24 17//17 25//25 
f 24//24 25//25 32//32 
f 25//25 26//26 34//34 
f 25//25 34//34 33//33 
f 26//26 27//27 35//35 
f 26//26 35//35 34//34 
f 27//27 28//28 36//36 
f 27//27 36//36 35//35 
f 28//28 29//29 37//37 
f 28//28 37//37 36//36 
f 29//29 30//30 38//38 
f 29//29 38//38 37//37 
f 30//30 31//31 39//39 
f 30//30 39//39 38//38 
f 31//31 32//32 40//40 
f 31//31 40//40 39//39 
f 32//32 25//25 33//33 
f 32//32 33//33 40//40 
f 33//33 34//34 42//42 
f 33//33 42//42 41//41 
f 34//34 35//35 43//43 
f 34//34 43//43 42//42 
f 35//35 36//36 44//44 
f 35//35 44//44 43//43 
f 36//36 37//37 45//45 
f 36//36 45//45 44//44 
f 37//37 38//38 46//46 
f 37//37 46//46 45//45 
f 38//38 39//39 47//47 
f 38//38 47//47 46//46 
f 39//39 40//40 48//48 
f 39//39 48//48 47//47 
f 40//40 33//33 41//41 
f 40//40 41//41 48//48 
f 41//41 42//42 50//50 
f 41//41 50//50 49//49 
f 42//42 43//43 51//51 
f 42//42 51//51 50//50 
f 43//43 44//44 52//52 
f 43//43 52//52 51//51 
f 44//44 45//45 53//53 
f 44//44 53//53 52//52 
f 45//45 46//46 54//54 
f 45//45 54//54 53//53 
f 46//46 47//47 55//55 
f 46//46 55//55 54//54 
f 47//47 48//48 56//56 
f 47//47 56//56 55//55 
f 48//48 41//41 49//49 
f 48//48 49//49 56//56 
f 49//49 50//50 58//58 
f 49//49 58//58 57//57 
f 50//50 51//51 59//59 
f 50//50 59//59 58//58 
f 51//51 52//52 60//60 
f 51//51 60//60 59//59 
f 52//52 53//53 61//61 
f 52//52 61//61 60//60 
f 53//53 54//54 62//62 
f 53//53 62//62 61//61 
f 54//54 55//55 63//63 
f 54//54 63//63 62//62 
f 55//55 56//56 64//64 
f 55//55 64//64 63//63 
f 56//56 49//49 57//57 
f 56//56 57//57 64//64 
f 64//64 150//150 6//6 
f 64//64 57//57 150//150 
f 63//63 6//6 154//154 
f 63//63 64//64 6//6 
f 142//142 152//152 144//144 
f 155//155 144//144 152//152 
f 141//141 149//149 143//143 
f 152//152 142//142 151//151 
f 156//156 143//143 149//149 
f 156//156 148//148 143//143 
f 148//148 151//151 142//142 
f 153//153 157//157 141//141 
f 142//142 141//141 143//143 
f 155//155 153//153 144//144 
f 142//142 144//144 141//141 
f 149//149 141//141 157//157 
f 141//141 144//144 153//153 
f 142//142 143//143 148//148 
f 62//62 154//154 5//5 
f 62//62 63//63 154//154 
f 61//61 5//5 147//147 
f 61//61 62//62 5//5 
f 60//60 147//147 3//3 
f 60//60 61//61 147//147 
f 59//59 3//3 7//7 
f 59//59 60//60 3//3 
f 58//58 7//7 146//146 
f 58//58 59//59 7//7 
f 57//57 146//146 150//150 
f 57//57 58//58 146//146 
# mm_gid 178
g mmGroup178
f 96//96 69//69 1//1 
f 96//96 89//89 69//69 
f 95//95 1//1 2//2 
f 95//95 96//96 1//1 
f 94//94 2//2 8//8 
f 94//94 95//95 2//2 
f 93//93 8//8 4//4 
f 93//93 94//94 8//8 
f 92//92 4//4 66//66 
f 92//92 93//93 4//4 
f 91//91 66//66 67//67 
f 91//91 92//92 66//66 
f 90//90 67//67 68//68 
f 90//90 91//91 67//67 
f 89//89 68//68 69//69 
f 89//89 90//90 68//68 
f 154//154 6//6 74//74 
f 154//154 74//74 73//73 
f 6//6 150//150 75//75 
f 6//6 75//75 74//74 
f 150//150 146//146 76//76 
f 150//150 76//76 75//75 
f 146//146 7//7 77//77 
f 146//146 77//77 76//76 
f 7//7 3//3 78//78 
f 7//7 78//78 77//77 
f 3//3 147//147 79//79 
f 3//3 79//79 78//78 
f 147//147 5//5 80//80 
f 147//147 80//80 79//79 
f 5//5 154//154 73//73 
f 5//5 73//73 80//80 
f 73//73 74//74 82//82 
f 73//73 82//82 81//81 
f 74//74 75//75 83//83 
f 74//74 83//83 82//82 
f 75//75 76//76 84//84 
f 75//75 84//84 83//83 
f 76//76 77//77 85//85 
f 76//76 85//85 84//84 
f 77//77 78//78 86//86 
f 77//77 86//86 85//85 
f 78//78 79//79 87//87 
f 78//78 87//87 86//86 
f 79//79 80//80 88//88 
f 79//79 88//88 87//87 
f 80//80 73//73 81//81 
f 80//80 81//81 88//88 
f 81//81 82//82 90//90 
f 81//81 90//90 89//89 
f 82//82 83//83 91//91 
f 82//82 91//91 90//90 
f 83//83 84//84 92//92 
f 83//83 92//92 91//91 
f 84//84 85//85 93//93 
f 84//84 93//93 92//92 
f 85//85 86//86 94//94 
f 85//85 94//94 93//93 
f 86//86 87//87 95//95 
f 86//86 95//95 94//94 
f 87//87 88//88 96//96 
f 87//87 96//96 95//95 
f 88//88 81//81 89//89 
f 88//88 89//89 96//96 
# mm_gid 488
g mmGroup488
f 112//112 101//101 65//65 
f 112//112 105//105 101//101 
f 111//111 65//65 72//72 
f 111//111 112//112 65//65 
f 110//110 72//72 145//145 
f 110//110 111//111 72//72 
f 109//109 145//145 70//70 
f 109//109 110//110 145//145 
f 108//108 70//70 98//98 
f 108//108 109//109 70//70 
f 107//107 98//98 99//99 
f 107//107 108//108 98//98 
f 106//106 99//99 100//100 
f 106//106 107//107 99//99 
f 105//105 100//100 101//101 
f 105//105 106//106 100//100 
f 66//66 4//4 106//106 
f 66//66 106//106 105//105 
f 4//4 8//8 107//107 
f 4//4 107//107 106//106 
f 8//8 2//2 108//108 
f 8//8 108//108 107//107 
f 2//2 1//1 109//109 
f 2//2 109//109 108//108 
f 1//1 69//69 110//110 
f 1//1 110//110 109//109 
f 69//69 68//68 111//111 
f 69//69 111//111 110//110 
f 68//68 67//67 112//112 
f 68//68 112//112 111//111 
f 67//67 66//66 105//105 
f 67//67 105//105 112//112 
# mm_gid 729
g mmGroup729
f 65//65 116//116 71//71 
f 65//65 101//101 116//116 
f 72//72 71//71 102//102 
f 72//72 65//65 71//71 
f 145//145 102//102 104//104 
f 145//145 72//72 102//102 
f 70//70 104//104 97//97 
f 70//70 145//145 104//104 
f 98//98 97//97 103//103 
f 98//98 70//70 97//97 
f 99//99 103//103 114//114 
f 99//99 98//98 103//103 
f 100//100 114//114 115//115 
f 100//100 99//99 114//114 
f 101//101 115//115 116//116 
f 101//101 100//100 115//115 
# mm_gid 864
g mmGroup864
f 139//139 123//123 118//118 
f 139//139 132//132 123//123 
f 138//138 118//118 117//117 
f 138//138 139//139 118//118 
f 137//137 117//117 119//119 
f 137//137 138//138 117//117 
f 136//136 119//119 120//120 
f 136//136 137//137 119//119 
f 135//135 120//120 113//113 
f 135//135 136//136 120//120 
f 134//134 113//113 121//121 
f 134//134 135//135 113//113 
f 133//133 121//121 122//122 
f 133//133 134//134 121//121 
f 132//132 122//122 123//123 
f 132//132 133//133 122//122 
f 104//104 102//102 125//125 
f 104//104 125//125 124//124 
f 102//102 71//71 126//126 
f 102//102 126//126 125//125 
f 71//71 116//116 127//127 
f 71//71 127//127 126//126 
f 116//116 115//115 128//128 
f 116//116 128//128 127//127 
f 115//115 114//114 129//129 
f 115//115 129//129 128//128 
f 114//114 103//103 130//130 
f 114//114 130//130 129//129 
f 103//103 97//97 131//131 
f 103//103 131//131 130//130 
f 97//97 104//104 124//124 
f 97//97 124//124 131//131 
f 124//124 125//125 133//133 
f 124//124 133//133 132//132 
f 125//125 126//126 134//134 
f 125//125 134//134 133//133 
f 126//126 127//127 135//135 
f 126//126 135//135 134//134 
f 127//127 128//128 136//136 
f 127//127 136//136 135//135 
f 128//128 129//129 137//137 
f 128//128 137//137 136//136 
f 129//129 130//130 138//138 
f 129//129 138//138 137//137 
f 130//130 131//131 139//139 
f 130//130 139//139 138//138 
f 131//131 124//124 132//132 
f 131//131 132//132 139//139 
# mm_gid 1052
g mmGroup1052
f 119//119 117//117 140//140 
f 120//120 119//119 140//140 
f 113//113 120//120 140//140 
f 121//121 113//113 140//140 
f 122//122 121//121 140//140 
f 123//123 122//122 140//140 
f 118//118 123//123 140//140 
f 117//117 118//118 140//140 
